<svg width="22" height="21" viewBox="0 0 22 21" fill="none" xmlns="http://www.w3.org/2000/svg">
<path d="M12.275 20.1913C11.8917 20.1913 11.6125 20.0652 11.4375 19.813C11.2625 19.5609 11.2417 19.2499 11.375 18.88L15.05 9.04522C15.15 8.77624 15.3333 8.54928 15.6 8.36435C15.8667 8.17942 16.1417 8.08696 16.425 8.08696C16.7083 8.08696 16.9875 8.17942 17.2625 8.36435C17.5375 8.54928 17.725 8.77624 17.825 9.04522L21.575 18.7791C21.725 19.1658 21.7083 19.4978 21.525 19.7752C21.3417 20.0526 21.0333 20.1913 20.6 20.1913C20.4167 20.1913 20.2417 20.1325 20.075 20.0148C19.9083 19.8971 19.7917 19.7458 19.725 19.5609L18.9 17.0139H14.1L13.15 19.5861C13.0833 19.7542 12.9667 19.8971 12.8 20.0148C12.6333 20.1325 12.4583 20.1913 12.275 20.1913V20.1913ZM14.65 15.2487H18.2L16.45 10.3565H16.4L14.65 15.2487ZM6.225 6.62435C6.475 7.06145 6.75 7.48595 7.05 7.89783C7.35 8.30971 7.675 8.73421 8.025 9.17131C8.775 8.38116 9.4 7.5616 9.9 6.71261C10.4 5.86363 10.825 4.97682 11.175 4.05218H1C0.716667 4.05218 0.479167 3.95551 0.2875 3.76218C0.0958334 3.56884 0 3.32928 0 3.04348C0 2.75769 0.0958334 2.51812 0.2875 2.32479C0.479167 2.13145 0.716667 2.03479 1 2.03479H7V1.02609C7 0.740294 7.09583 0.500728 7.2875 0.307395C7.47917 0.114062 7.71667 0.017395 8 0.017395C8.28333 0.017395 8.52083 0.114062 8.7125 0.307395C8.90417 0.500728 9 0.740294 9 1.02609V2.03479H15C15.2833 2.03479 15.5208 2.13145 15.7125 2.32479C15.9042 2.51812 16 2.75769 16 3.04348C16 3.32928 15.9042 3.56884 15.7125 3.76218C15.5208 3.95551 15.2833 4.05218 15 4.05218H13.175C12.8083 5.21218 12.3208 6.35116 11.7125 7.46913C11.1042 8.58711 10.3583 9.65044 9.475 10.6591L11.925 13.1557L11.175 15.1983L8 12.1217L3.675 16.4844C3.49167 16.6693 3.26667 16.7617 3 16.7617C2.73333 16.7617 2.50833 16.6609 2.325 16.4591C2.125 16.2742 2.025 16.0473 2.025 15.7783C2.025 15.5093 2.125 15.2739 2.325 15.0722L6.725 10.6339C6.29167 10.1128 5.88333 9.5874 5.5 9.05783C5.11667 8.52826 4.76667 7.98609 4.45 7.43131C4.25 7.06145 4.23333 6.74203 4.4 6.47305C4.56667 6.20406 4.86667 6.06957 5.3 6.06957C5.48333 6.06957 5.6625 6.12421 5.8375 6.23348C6.0125 6.34276 6.14167 6.47305 6.225 6.62435V6.62435Z" fill="url(#paint0_linear_24_30)"/>
<defs>
<linearGradient id="paint0_linear_24_30" x1="10.8381" y1="0.017395" x2="10.8381" y2="20.1913" gradientUnits="userSpaceOnUse">
<stop stop-color="#3E3232" stop-opacity="0.97"/>
<stop offset="0.9999" stop-color="#3E3232" stop-opacity="0.98788"/>
<stop offset="1" stop-color="#3E3232"/>
</linearGradient>
</defs>
</svg>
